<svg width="96" height="40" fill="none" xmlns="http://www.w3.org/2000/svg"><path d="M24.882.833a.54.54 0 01.547-.535h7.18c5.84 0 10.645 4.643 10.645 10.357 0 5.774-4.806 10.417-10.646 10.417H25.43a.54.54 0 01-.547-.536V.833zm7.422 16.608c3.954 0 6.814-2.917 6.814-6.786 0-3.87-2.86-6.786-6.814-6.786h-3.468v13.572h3.468zM44.41 20.298l9.43-20c.121-.179.243-.298.486-.298h.304c.305 0 .426.119.487.298l9.369 20c.182.417-.06.774-.487.774h-2.616c-.426 0-.669-.179-.851-.596l-1.46-3.214h-9.065l-1.46 3.214c-.122.298-.426.596-.852.596h-2.616c-.608 0-.852-.357-.67-.774zm13.08-6.31l-3.042-6.547h-.122l-2.98 6.547h6.144zM69.779 11.072L62.844 1.13c-.244-.417 0-.833.486-.833h3.103c.243 0 .365.119.487.238l4.867 6.845L76.653.536c.061-.12.244-.238.487-.238h3.103c.487 0 .73.476.487.833l-6.997 9.881v9.464a.54.54 0 01-.547.536h-2.799a.54.54 0 01-.547-.536v-9.404h-.061zM82.19 18.155l1.095-1.845c.243-.417.73-.417 1.034-.179.122.12 2.616 1.845 4.563 1.845 1.581 0 2.737-1.011 2.737-2.261 0-1.489-1.277-2.56-3.832-3.572-2.86-1.131-5.72-2.917-5.72-6.429C82.068 3.095 84.077 0 88.883 0c3.102 0 5.475 1.548 6.083 1.964.304.179.426.655.183.953l-1.156 1.666c-.243.358-.67.596-1.034.358-.244-.12-2.555-1.608-4.198-1.608-1.704 0-2.677 1.131-2.677 2.084 0 1.369 1.095 2.321 3.59 3.333 2.92 1.131 6.326 2.857 6.326 6.726 0 3.036-2.676 5.893-6.996 5.893-3.832 0-6.083-1.726-6.692-2.321-.243-.238-.426-.417-.121-.893zM19.407 26.488c3.771 0 6.813 2.977 6.813 6.667s-3.042 6.667-6.813 6.667c-3.772 0-6.814-2.917-6.814-6.667.06-3.69 3.042-6.667 6.814-6.667zm0 10.893c2.372 0 4.38-1.904 4.38-4.226 0-2.321-1.947-4.286-4.38-4.286a4.301 4.301 0 00-4.32 4.286c0 2.322 1.947 4.226 4.32 4.226zM28.715 27.024c0-.178.122-.357.365-.357h7.726c.183 0 .365.179.365.357v1.548a.347.347 0 01-.365.357H31.21v3.452h4.685c.182 0 .365.179.365.358v1.547c0 .179-.183.357-.365.357h-4.685v4.703c0 .178-.182.357-.365.357H29.08c-.183 0-.365-.179-.365-.357V27.024zM51.103 26.488c1.886 0 3.285.596 4.562 1.727.183.119.183.357 0 .535l-1.155 1.19c-.122.12-.305.12-.487 0-.791-.713-1.825-1.07-2.92-1.07-2.434 0-4.198 1.964-4.198 4.345 0 2.321 1.825 4.285 4.258 4.285 1.156 0 2.13-.416 2.92-1.071.122-.12.366-.12.487 0l1.156 1.19a.356.356 0 010 .477c-1.277 1.25-2.92 1.785-4.623 1.785-3.772 0-6.814-2.916-6.814-6.666-.06-3.75 3.042-6.727 6.814-6.727zM64 26.488c3.772 0 6.814 2.977 6.814 6.667S67.772 39.822 64 39.822c-3.772 0-6.813-2.917-6.813-6.667 0-3.69 2.98-6.667 6.813-6.667zm0 10.893c2.373 0 4.38-1.904 4.38-4.226 0-2.321-1.946-4.286-4.38-4.286a4.301 4.301 0 00-4.32 4.286c-.06 2.322 1.887 4.226 4.32 4.226zM73.308 27.024c0-.178.121-.357.365-.357h4.501c3.65 0 6.632 2.917 6.632 6.488 0 3.572-2.981 6.488-6.632 6.488h-4.501c-.183 0-.365-.178-.365-.357V27.024zm4.562 10.357c2.434 0 4.259-1.785 4.259-4.226 0-2.38-1.825-4.226-4.259-4.226h-2.129v8.452h2.13zM87.24 27.024c0-.178.12-.357.364-.357h7.727c.182 0 .364.179.364.357v1.548c0 .178-.182.357-.364.357h-5.597v3.036h4.684c.182 0 .365.178.365.357v1.547c0 .179-.183.358-.365.358h-4.684v3.214h5.597c.182 0 .364.178.364.357v1.548c0 .178-.182.357-.364.357h-7.727c-.182 0-.365-.179-.365-.357V27.024zM18.312.298H.365A.347.347 0 000 .655V6.13c0 .238.183.357.365.357h3.833a.347.347 0 00.365-.357V4.048h9.49v9.583c0 .06 0 .12-.06.238-.061.12-.122.12-.183.179l-4.38 3.75c-.791.655-1.582 1.369-2.434 2.024a155.93 155.93 0 01-3.528 2.976c-.061 0-.122.06-.122.178-.06.12-.06.179-.06.239v16.25s0 .119.06.238a.38.38 0 00.243.119h3.955s.121.06.243-.06c.122-.119.06-.238.06-.238v-16.31-.118c.062-.06.062-.12.123-.12 1.216-1.071 2.494-2.083 3.71-3.154.792-.655 1.582-1.37 2.434-2.024 1.4-1.19 2.86-2.381 4.259-3.572l.121-.119c.061-.06.061-.119.061-.178V.774s.061-.179-.122-.357c.061-.179-.121-.12-.121-.12z" fill="#DFDFE9"/></svg>