<svg width="359" height="196" fill="none" xmlns="http://www.w3.org/2000/svg"><path d="M354.579 5.537H4.421v184.28H354.58V5.537z" fill="#000"/><path d="M358.823 195.354H0V0h359v195.354h-.177zM7.251 188.087h344.145V7.267H7.251v180.82z" fill="#DFDFE9"/><path d="M111.414 42.22c0-.865.707-1.557 1.591-1.557h20.868c16.978 0 30.949 13.496 30.949 30.108 0 16.784-13.971 30.28-30.949 30.28h-20.868c-.884 0-1.591-.692-1.591-1.557V42.22zm21.575 48.276c11.495 0 19.807-8.478 19.807-19.725 0-11.248-8.312-19.726-19.807-19.726h-10.08v39.451h10.08zm35.193 8.306l27.411-58.14c.354-.518.707-.864 1.415-.864h.884c.884 0 1.238.346 1.415.865l27.234 58.139c.531 1.211-.177 2.249-1.415 2.249h-7.604c-1.238 0-1.945-.519-2.476-1.73l-4.244-9.344h-26.35l-4.245 9.344c-.354.865-1.238 1.73-2.476 1.73h-7.604c-1.769 0-2.476-1.038-1.945-2.25zm38.022-18.342l-8.843-19.033h-.353l-8.666 19.033h17.862zm35.723-8.478l-20.16-28.897c-.708-1.211 0-2.422 1.414-2.422h9.02c.707 0 1.061.346 1.414.692l14.148 19.899 14.148-19.9c.177-.345.707-.691 1.415-.691h9.019c1.415 0 2.122 1.384 1.415 2.422L253.422 71.81v27.51c0 .865-.707 1.557-1.591 1.557h-8.135c-.885 0-1.592-.692-1.592-1.557V71.98h-.177zm36.077 20.591l3.183-5.364c.707-1.212 2.122-1.212 3.006-.52.354.347 7.605 5.365 13.264 5.365 4.598 0 7.958-2.942 7.958-6.576 0-4.325-3.714-7.44-11.141-10.382-8.312-3.287-16.624-8.478-16.624-18.687 0-7.614 5.836-16.611 19.807-16.611 9.019 0 15.916 4.498 17.685 5.71.884.519 1.238 1.903.53 2.768l-3.36 4.845c-.707 1.038-1.945 1.73-3.006 1.038-.708-.346-7.428-4.672-12.203-4.672-4.951 0-7.781 3.288-7.781 6.057 0 3.98 3.183 6.748 10.434 9.69 8.489 3.287 18.392 8.305 18.392 19.552 0 8.825-7.781 17.13-20.337 17.13-11.142 0-17.685-5.017-19.454-6.748-.707-.692-1.238-1.211-.353-2.595zM95.498 116.797c10.964 0 19.806 8.652 19.806 19.38s-8.842 19.38-19.806 19.38c-10.965 0-19.807-8.479-19.807-19.38.177-10.728 8.842-19.38 19.807-19.38zm0 31.665c6.897 0 12.733-5.537 12.733-12.285s-5.66-12.458-12.733-12.458c-7.074 0-12.557 5.71-12.557 12.458s5.66 12.285 12.557 12.285zm27.057-30.107c0-.519.354-1.038 1.061-1.038h22.46c.53 0 1.061.519 1.061 1.038v4.499c0 .519-.354 1.038-1.061 1.038h-16.27v10.036h13.617c.531 0 1.061.519 1.061 1.038v4.499c0 .519-.53 1.038-1.061 1.038h-13.617v13.67c0 .519-.531 1.038-1.061 1.038h-5.129c-.53 0-1.061-.519-1.061-1.038v-35.818zm65.08-1.558c5.483 0 9.55 1.731 13.264 5.018.53.346.53 1.038 0 1.557l-3.36 3.461c-.354.346-.884.346-1.415 0-2.299-2.076-5.305-3.114-8.489-3.114-7.073 0-12.202 5.71-12.202 12.631 0 6.748 5.305 12.458 12.379 12.458 3.36 0 6.19-1.211 8.489-3.114.354-.346 1.061-.346 1.415 0l3.36 3.46c.353.346.353 1.039 0 1.385-3.714 3.633-8.489 5.191-13.441 5.191-10.964 0-19.807-8.479-19.807-19.38-.176-10.901 8.843-19.553 19.807-19.553zm37.492 0c10.964 0 19.807 8.652 19.807 19.38s-8.843 19.38-19.807 19.38c-10.965 0-19.807-8.479-19.807-19.38 0-10.728 8.666-19.38 19.807-19.38zm0 31.665c6.897 0 12.733-5.537 12.733-12.285s-5.659-12.458-12.733-12.458c-7.074 0-12.556 5.71-12.556 12.458-.177 6.748 5.482 12.285 12.556 12.285zm27.057-30.107c0-.519.354-1.039 1.061-1.039h13.087c10.611 0 19.276 8.479 19.276 18.861 0 10.382-8.665 18.861-19.276 18.861h-13.087c-.53 0-1.061-.519-1.061-1.039v-35.644zm13.264 30.107c7.074 0 12.379-5.191 12.379-12.285 0-6.921-5.305-12.285-12.379-12.285h-6.19v24.57h6.19zm27.235-30.107c0-.519.354-1.039 1.061-1.039h22.46c.53 0 1.061.52 1.061 1.039v4.498c0 .52-.531 1.039-1.061 1.039h-16.27v8.824h13.617c.53 0 1.061.519 1.061 1.039v4.498c0 .52-.531 1.039-1.061 1.039h-13.617v9.343h16.27c.53 0 1.061.52 1.061 1.039v4.498c0 .52-.531 1.039-1.061 1.039h-22.46c-.531 0-1.061-.519-1.061-1.039v-35.817zM92.314 40.663H40.145c-.708 0-1.062.519-1.062 1.038V57.62c0 .692.531 1.038 1.062 1.038h11.141c.707 0 1.061-.519 1.061-1.038v-6.056h27.588v27.858c0 .173 0 .346-.177.692-.176.346-.353.346-.53.52l-12.733 10.9c-2.3 1.904-4.598 3.98-7.074 5.884-3.36 2.941-6.897 5.883-10.257 8.651-.177 0-.354.173-.354.519-.177.346-.177.519-.177.693v47.238s0 .346.177.692c.354.346.707.346.707.346h11.496s.353.173.707-.173.177-.692.177-.692v-47.758c.177-.173.177-.346.354-.346 3.536-3.114 7.25-6.056 10.787-9.17 2.3-1.904 4.598-3.98 7.074-5.884 4.068-3.46 8.312-6.92 12.38-10.382l.353-.346c.177-.173.177-.346.177-.519v-38.24s.177-.519-.354-1.038c.177-.52-.354-.346-.354-.346z" fill="#DFDFE9"/></svg>