<svg width="70" height="32" fill="none" xmlns="http://www.w3.org/2000/svg"><path fill-rule="evenodd" clip-rule="evenodd" d="M21.743.001h-3.16V0c-.159 0-.266.13-.291.285V31.22c.002.16.132.288.291.288h3.16c.16 0 .29-.129.292-.288V.285a.29.29 0 00-.292-.284zm40.69 8.232c2.604 0 4.515.494 5.736 1.507C69.39 10.728 70 12 70 13.505v12.832c0 .519-.105 1.09-.292 1.713-.185.625-.556 1.196-1.14 1.714-.558.521-1.327.963-2.31 1.3-.98.338-2.256.52-3.821.52-1.565 0-2.841-.182-3.822-.52-.981-.337-1.752-.779-2.31-1.3a4.157 4.157 0 01-1.138-1.714c-.188-.623-.294-1.194-.294-1.713v-2.051c0-1.092.293-2.105.876-2.99.584-.907 1.408-1.53 2.47-1.92.257-.089.534-.177.83-.271.313-.1.646-.206 1.001-.326.256-.087.505-.175.75-.26.413-.145.814-.286 1.215-.415a35.69 35.69 0 001.672-.6c.288-.116.58-.22.876-.31l.478-.235c.185-.104.371-.26.557-.467.19-.211.35-.447.478-.7a2.01 2.01 0 00.212-.909v-.831a2.115 2.115 0 00-.187-.885c-.105-.312-.317-.598-.61-.856-.291-.26-.688-.468-1.167-.626-.478-.154-1.114-.232-1.832-.232-1.487 0-2.468.287-3 .883a3.221 3.221 0 00-.77 1.896c0 .156-.13.26-.29.26h-3.22a.291.291 0 01-.29-.285v-.754c0-.726.133-1.401.425-2.051.292-.648.743-1.195 1.352-1.661.613-.468 1.408-.858 2.365-1.117.901-.263 2.042-.392 3.37-.392v.001zm-54.868 0c2.603 0 4.514.494 5.734 1.507 1.221.988 1.832 2.259 1.832 3.765v12.832c0 .518-.105 1.09-.29 1.713-.188.625-.559 1.196-1.143 1.713-.557.522-1.327.963-2.309 1.301-.982.338-2.256.52-3.823.52-1.564 0-2.84-.182-3.822-.52-.98-.338-1.752-.779-2.309-1.3A4.16 4.16 0 01.294 28.05C.106 27.428 0 26.857 0 26.338v-2.051c0-1.092.292-2.105.876-2.99.584-.907 1.407-1.53 2.47-1.92.255-.088.53-.176.824-.27.314-.1.65-.206 1.006-.327.268-.091.527-.182.781-.271h.002v-.001h.001c.401-.14.79-.277 1.18-.403a35.17 35.17 0 001.673-.6c.287-.116.58-.22.876-.31l.478-.235c.187-.104.371-.26.558-.467.185-.207.344-.44.478-.7a2 2 0 00.213-.909v-.831a2.115 2.115 0 00-.188-.885c-.105-.312-.318-.597-.61-.856-.291-.26-.69-.468-1.167-.626-.478-.153-1.114-.232-1.832-.232-1.487 0-2.47.287-3 .883-.45.52-.716 1.17-.768 1.896 0 .156-.133.26-.293.26l-3.238.053a.292.292 0 01-.292-.288v-.75c0-.73.134-1.405.425-2.054.293-.65.745-1.195 1.354-1.664.61-.466 1.408-.855 2.363-1.115.93-.313 2.07-.442 3.397-.442h-.002zm3.823 11.506l-.002.009v-.009h.002zm-.002.009v5.292c0 1.038-.265 1.842-.794 2.413-.533.572-1.542.857-3.029.857-1.457 0-2.441-.259-2.972-.805-.532-.52-.797-1.35-.797-2.442 0-.545.134-1.013.347-1.375.207-.327.457-.624.743-.883a4.472 4.472 0 011.008-.598c.32-.122.653-.232.997-.346a58.2 58.2 0 00.517-.173c.263-.081.546-.182.849-.29.187-.066.382-.135.585-.204.333-.12.655-.23.965-.334h.001l.468-.16a3.05 3.05 0 00.663-.31.908.908 0 00.45-.642zm54.868 0l.002-.009h-.002v.009zm0 0a.908.908 0 01-.449.642c-.237.154-.45.232-.661.31h-.002c-.166.058-.337.115-.511.174-.297.101-.605.206-.923.32-.203.07-.399.138-.587.205-.303.107-.585.208-.847.289l-.505.169c-.349.115-.685.227-1.01.35a4.47 4.47 0 00-1.008.598 4.243 4.243 0 00-.742.883c-.213.362-.345.83-.345 1.375 0 1.092.262 1.923.794 2.442.53.546 1.514.805 2.974.805 1.489 0 2.496-.285 3.028-.857.53-.571.794-1.375.794-2.413v-5.292zM53.171 8.337h-2.124v-.002c-1.778 0-3.158.208-4.168.626-1.008.415-1.752.934-2.256 1.506-.504.597-.824 1.169-.93 1.765-.133.598-.185 1.066-.185 1.376v17.456a.292.292 0 00.291.285h3.184c.16.001.29-.126.294-.285V14.362c0-.288.035-.576.106-.856.08-.287.24-.57.505-.858.266-.285.663-.52 1.142-.726.504-.208 1.141-.312 1.937-.312h1.487c.106 0 .24-.078.265-.21l.717-2.7a.282.282 0 00-.265-.363zm-12.85 17.428v.779c0 .338-.05.805-.183 1.403-.107.57-.426 1.168-.93 1.739-.505.572-1.248 1.091-2.256 1.507-1.01.416-2.39.625-4.168.625-1.777 0-3.158-.209-4.167-.625-1.009-.416-1.752-.908-2.256-1.506-.505-.57-.824-1.168-.93-1.764l-.01-.052c-.1-.574-.174-.998-.174-1.326V9.065c0-.157.133-.288.292-.288h3.158c.16 0 .293.131.293.288v16.362c0 .545.079.936.159 1.247.081.313.24.623.48.883.237.285.61.519 1.113.7.478.183 1.142.288 1.965.288.85 0 1.54-.105 2.045-.288.504-.18.876-.415 1.141-.675.263-.259.45-.544.53-.857.011-.046.024-.091.036-.137.073-.263.15-.545.15-1.188V9.04a.29.29 0 01.291-.286h3.159c.158 0 .29.13.29.288v16.725h-.025l-.002-.002z" fill="#fff"/></svg>