<svg width="52" height="61" fill="none" xmlns="http://www.w3.org/2000/svg"><path d="M48.342 15.4a1.059 1.059 0 01.036.827l-4.716 12.8m4.68-13.627L25.536 45.188M48.342 15.4a1.07 1.07 0 00-.252-.341m.252.34l-.252-.34m-4.428 13.969l-.235-.087 4.717-12.801h0a.81.81 0 00-.028-.633v-.002a.822.822 0 00-.475-.429h-.001L16.334 3.822h0a.857.857 0 00-.913.22.83.83 0 00-.17.277h0l-1.933 5.246c.41.096.815.215 1.213.357 5.6 1.993 8.672 8.36 6.702 13.913a10.845 10.845 0 01-2.215 3.709 10.996 10.996 0 01-3.498 2.567 11.107 11.107 0 01-8.529.393c-.41-.148-.81-.319-1.2-.512l-1.934 5.25h0a.811.811 0 00.028.634h0a.832.832 0 00.476.431h0l7.86 2.825h0c.787.285 1.342.97 1.445 1.792h0c.05.408-.014.822-.188 1.196a2.225 2.225 0 01-.792.919 7.862 7.862 0 00-3.03 3.843h0a7.804 7.804 0 00.627 6.731h0c1.22 2.046 3.312 3.441 5.745 3.822a8.048 8.048 0 004.575-.65 7.924 7.924 0 003.436-3.051c1.177-1.944 1.485-4.183.871-6.308a2.19 2.19 0 01.626-2.238m18.126-16.16l-.235-.087a1.498 1.498 0 00.404 1.634 1.53 1.53 0 001.096.395 1.54 1.54 0 001.06-.487 1.51 1.51 0 00.31-.505h0l4.716-12.801h0a3.791 3.791 0 00-.13-2.948m-7.221 14.799a1.247 1.247 0 00.336 1.362 1.28 1.28 0 00.919.33 1.289 1.289 0 00.886-.407c.113-.122.201-.265.259-.421l4.716-12.801a3.54 3.54 0 00-.122-2.756m-25.12 30.853a2.23 2.23 0 012.269-.453m-2.27.453l2.27-.454m0 0s0 0 0 0l4.538 1.633h0a1.533 1.533 0 01.862.781 1.5 1.5 0 01-.74 2.01 1.54 1.54 0 01-1.166.05l-3.134-1.126c.355 2.475-.163 4.988-1.508 7.206-1.981 3.278-5.63 5.264-9.429 5.264 0 0 0 0 0 0l10.576-15.818zm22.851-30.399l.227-.106m-.227.106l.226-.107v.001m-.226.106a3.582 3.582 0 00-.84-1.136 3.63 3.63 0 00-1.22-.728L17.292 1.216a3.694 3.694 0 00-2.789.122 3.625 3.625 0 00-1.887 2.032L50.883 14.23M9.769 41.469a10.856 10.856 0 00-2.983 4.378 10.8 10.8 0 00.867 9.304c1.687 2.829 4.567 4.75 7.899 5.271L9.769 41.468zm0 0l-6.45-2.32a3.88 3.88 0 01-1.303-.777 3.832 3.832 0 01-.899-1.215m8.652 4.311l-8.652-4.312v.001m0 0a3.805 3.805 0 01-.13-2.95m.13 2.95l-.13-2.95m0 0h0m0 0h0m0 0l2.267-6.153s0 0 0 0c.112-.307.293-.584.527-.813.235-.228.519-.401.83-.507a2.286 2.286 0 011.938.22L.987 34.206zm7.048-6.543h0a8.06 8.06 0 006.18-.285h.001a7.957 7.957 0 002.533-1.858 7.844 7.844 0 001.602-2.683v-.001c1.422-4.01-.799-8.626-4.852-10.068h0a8.144 8.144 0 00-1.576-.39 2.283 2.283 0 01-.936-.35 2.252 2.252 0 01-.694-.717h0a2.165 2.165 0 01-.178-1.875s0 0 0 0l2.266-6.153h0A3.875 3.875 0 0114.4 1.11a3.944 3.944 0 012.978-.13h0L48.68 12.236 8.035 27.664zm0 0a8.15 8.15 0 01-1.486-.71l1.486.71zM48.09 15.06a1.087 1.087 0 00-.366-.218l.366.218z" fill="#fff" stroke="#fff" stroke-width=".5"/></svg>