<svg width="55" height="55" fill="none" xmlns="http://www.w3.org/2000/svg"><path d="M28.82 49.94H.33V5.06h54.34V30.8c0 .77-.66 1.32-1.32 1.32s-1.32-.66-1.32-1.32V7.81H3.08V47.3h25.74c.77 0 1.32.66 1.32 1.32s-.55 1.32-1.32 1.32z" fill="#fff"/><path d="M31.9 28.93l-.33 1.54h1.32l.33-1.54H31.9zm0 0l-.33 1.54h1.32l.33-1.54H31.9zM4.62 14.19v31.13h45.65V14.19H4.62zM26.4 33.55c-.33.33-.66.55-.99.77-.33.22-.77.33-1.21.44-.44.11-.88.11-1.21.11-.77 0-1.43-.11-1.98-.44s-1.1-.66-1.54-1.21c-.44-.44-.77-.99-.99-1.65-.22-.66-.33-1.21-.33-1.87 0-.55.11-1.21.33-1.76.22-.55.55-1.1.99-1.54.44-.44.99-.88 1.54-1.1.66-.33 1.32-.44 2.09-.44.99 0 1.76.22 2.42.55.66.44 1.21.88 1.54 1.54l-1.76 1.21c-.11-.22-.22-.44-.44-.66-.22-.22-.33-.33-.55-.44-.22-.11-.44-.22-.66-.22-.22 0-.44-.11-.66-.11-.44 0-.88.11-1.1.22-.33.22-.55.44-.77.66-.22.22-.33.55-.44.99-.11.33-.11.66-.11 1.1 0 .44.11.77.22 1.1.11.33.33.66.55.99.22.22.55.55.88.66.33.11.66.22 1.1.22.22 0 .44 0 .66-.11.22 0 .44-.11.66-.22.22-.11.33-.22.55-.44.22-.22.33-.33.44-.66l1.87 1.1c-.66.55-.88.88-1.1 1.21zm10.67-4.62h-2.09l-.33 1.54h1.87v1.65h-2.2l-.66 2.53H31.9l.66-2.53h-1.32l-.66 2.53h-1.76l.66-2.53h-1.54v-1.65h1.76l.33-1.54h-1.65v-1.54h2.09l.66-2.64h1.76l-.66 2.64h1.32l.66-2.64h1.76l-.66 2.64h1.76v1.54zm-5.61 1.65h1.32l.33-1.54H31.9l-.44 1.54zM47.63 10.56l1.32 1.43-.22.22-1.32-1.43-1.43 1.43-.11-.22 1.32-1.43-1.32-1.32.11-.22 1.43 1.43 1.32-1.43.22.22-1.32 1.32z" fill="#fff"/></svg>