<svg width="75" height="64" fill="none" xmlns="http://www.w3.org/2000/svg"><path d="M37.346 38.32c3.745 0 6.78-2.915 6.78-6.51 0-3.596-3.035-6.51-6.78-6.51s-6.78 2.914-6.78 6.51c0 3.595 3.035 6.51 6.78 6.51z" fill="#fff"/><path clip-rule="evenodd" d="M37.346 18.574c9.104 0 17.561 1.254 23.938 3.361 7.683 2.54 12.407 6.39 12.407 9.875 0 3.632-5.007 7.72-13.257 10.345-6.238 1.984-14.446 3.02-23.088 3.02-8.86 0-17.25-.972-23.558-3.042C5.807 39.515 1 35.373 1 31.81c0-3.457 4.51-7.276 12.085-9.812 6.4-2.142 15.067-3.423 24.26-3.423h.001z" stroke="#fff" stroke-width="1.663"/><path clip-rule="evenodd" d="M25.345 25.23C29.893 17.658 35.249 11.25 40.337 7c6.13-5.12 11.962-7.126 15.107-5.385 3.277 1.814 4.466 8.021 2.712 16.194-1.324 6.179-4.492 13.523-8.809 20.71-4.426 7.369-9.495 13.861-14.513 18.072-6.35 5.33-12.489 7.258-15.704 5.478-3.12-1.726-4.312-7.386-2.816-14.953 1.265-6.394 4.438-14.24 9.03-21.886h0z" stroke="#fff" stroke-width="1.663"/><path clip-rule="evenodd" d="M25.356 38.538c-4.56-7.563-7.666-15.22-8.962-21.574-1.56-7.656-.457-13.51 2.684-15.255 3.274-1.82 9.47.29 15.968 5.831 4.914 4.189 9.96 10.49 14.29 17.67 4.439 7.362 7.766 14.82 9.06 21.097 1.638 7.944.313 14.013-2.9 15.798-3.116 1.732-8.818-.102-14.9-5.126-5.137-4.244-10.634-10.803-15.24-18.441v0z" stroke="#fff" stroke-width="1.663"/></svg>