<svg width="56" height="56" fill="none" xmlns="http://www.w3.org/2000/svg"><path d="M27.798 0C13.582 0 14.47 6.197 14.47 6.197l.015 6.42h13.567v1.928H9.097S0 13.508 0 27.928c0 14.42 7.94 13.908 7.94 13.908h4.739v-6.691s-.256-7.982 7.813-7.982h13.455s7.56.123 7.56-7.344V7.472S42.655 0 27.798 0zm-7.48 4.317c1.35 0 2.44 1.097 2.44 2.454a2.445 2.445 0 01-2.44 2.453 2.445 2.445 0 01-2.441-2.453 2.445 2.445 0 012.44-2.454z" fill="#fff"/><path d="M28.202 56c14.216 0 13.329-6.197 13.329-6.197l-.016-6.42H27.948v-1.928h18.955S56 42.492 56 28.072c0-14.42-7.94-13.908-7.94-13.908h-4.739v6.691s.256 7.982-7.813 7.982H22.053s-7.56-.123-7.56 7.344v12.347S13.345 56 28.203 56zm7.48-4.317a2.445 2.445 0 01-2.44-2.454 2.445 2.445 0 012.44-2.453 2.444 2.444 0 012.441 2.453 2.445 2.445 0 01-2.44 2.454z" fill="#fff"/></svg>