<svg width="33" height="33" fill="none" xmlns="http://www.w3.org/2000/svg"><path fill-rule="evenodd" clip-rule="evenodd" d="M.492 20.563l.7.7 2.568 2.568.7.7.7-.7a2.626 2.626 0 013.734 0 2.626 2.626 0 010 3.734l-.7.7.7.7 2.567 2.567.7.7.7-.7 18.671-18.67.7-.7-.7-.7-2.567-2.568-.7-.7-.7.7a2.626 2.626 0 01-3.735 0 2.626 2.626 0 010-3.734l.7-.7-.7-.7-2.567-2.567-.7-.7-.7.7-18.67 18.67-.7.7zm2.801 0L14.729 9.128l8.868 8.868-11.436 11.436-1.254-1.255c1.139-1.785.943-4.191-.613-5.747-1.555-1.555-3.968-1.758-5.754-.62l-1.247-1.247zm17.27-17.27L16.13 7.727l8.868 8.869 4.435-4.434-1.255-1.255c-1.786 1.139-4.191.943-5.747-.613-1.555-1.555-1.758-3.968-.62-5.754l-1.247-1.247z" fill="#010101"/><path fill-rule="evenodd" clip-rule="evenodd" d="M18.2 16.492c-.046-.492-.357-1.02-.93-1.594v.001c-.291-.292-.571-.515-.844-.65a2.134 2.134 0 00-.766-.275 1.346 1.346 0 00-.664.068 1.529 1.529 0 00-.545.359l-.165.165a.09.09 0 000 .127l.725.701c.035.036.087.042.121.007a.999.999 0 01.587-.248c.247-.014.527.139.854.466.158.158.28.315.352.454.07.14.112.273.12.395a.635.635 0 01-.055.323.658.658 0 01-.153.235l-.183.183a.622.622 0 01-.247.153 1.027 1.027 0 01-.26.05.684.684 0 01-.225-.02l-.157-.054a3.603 3.603 0 00-.26-.125 11.077 11.077 0 01-.5-.236c-.114-.058-.23-.113-.35-.17a29.023 29.023 0 01-.232-.113 12.798 12.798 0 01-.293-.15 13.492 13.492 0 00-.24-.122 1.486 1.486 0 00-.967-.12 1.66 1.66 0 00-.85.464l-.452.452a1.871 1.871 0 00-.312.441 1.295 1.295 0 00-.126.628c.008.238.08.504.222.795.142.29.383.61.727.955.345.345.665.585.956.727.29.142.556.214.794.222.242.014.45-.03.628-.126s.327-.199.441-.313l2.824-2.824a1.45 1.45 0 00.425-1.231zm-2.623 1.781l.002-.002-.002.002zm0 0a.283.283 0 01-.24.043.945.945 0 01-.214-.078 33.51 33.51 0 01-.138-.068c-.092-.045-.187-.092-.287-.139l-.173-.084a18.013 18.013 0 01-.402-.199c-.102-.05-.199-.099-.296-.143a1.39 1.39 0 00-.353-.09c-.12-.006-.24.004-.358.03a.843.843 0 00-.38.227c-.24.24-.364.482-.361.713-.004.237.156.51.477.831.327.327.611.486.855.478.242-.01.477-.128.705-.357l1.165-1.164z" fill="#000"/><path d="M17.27 14.899l.141-.142-.295.269.154-.127zm.93 1.593l-.2.018.001.003.199-.021zm-.93-1.593l-.141.142.295-.27-.154.128zm-.844-.65l-.1.174.01.005.09-.18zm-.766-.275l.027-.198h-.001l-.026.198zm-.664.068l-.07-.187.07.187zm-.545.359l.141.141-.141-.141zm-.165.165l-.142-.142-.002.002.144.14zm0 .127l-.14.142.002.002.139-.144zm.725.701l.141-.141-.002-.002-.14.143zm.121.007l-.13-.15-.006.004-.005.005.141.141zm.587-.248l-.012-.2h-.003l.015.2zm1.206.92l.179-.09h-.001l-.178.09zm.12.395l-.2.011.2-.011zm-.055.323l-.18-.09-.004.01-.003.009.187.07zm-.153.235l-.141-.142v.001l.14.141zm-.183.183l-.142-.141.142.141zm-.247.153l.061.19h.002l-.063-.19zm-.26.05l.011.199-.01-.2zm-.225-.02l-.065.189.01.003.055-.193zm-.157-.054l-.093.177.014.007.014.005.065-.19zm-.26-.125l-.082.183.002.001.08-.184zm-.5-.236l-.092.178.091-.178zm-.35-.17l-.086.18.087-.18zm-.232-.113l-.088.179.088-.18zm-.293-.15l-.092.178.092-.178zm-.24-.122l.087-.18-.004-.002-.084.182zm-.967-.12l.04.195h.003l-.043-.195zm-1.614 1.357l-.176-.094-.004.008.18.086zm-.126.628l.2-.006v-.004l-.2.01zm.222.795l-.18.087.18-.087zm2.477 1.904l.012-.2h-.006l-.006.2zm.628-.126l.095.176-.095-.176zm.441-.313l.141.141-.14-.141zm2.824-2.824l-.142-.141.142.141zm-2.196.549l.118.161.189-.138-.165-.165-.142.142zm0 0l.141-.142-.141-.142-.142.142.142.141zm-.242.044l.053-.194-.011-.002-.042.195zm-.214-.078l-.088.18.003.001.085-.181zm-.138-.068l.088-.18-.088.18zm-.287-.139l-.088.18h.003l.085-.18zm-.173-.084l.086-.18-.086.18zm-.25-.123l.093-.177-.006-.002-.088.18zm-.153-.076l.09-.178-.09.178zm-.295-.143l.082-.182-.008-.003-.074.185zm-.353-.09l.023-.2h-.014l-.01.2zm-.358.03l-.044-.195-.007.002.05.194zm-.741.94l.2.003v-.006l-.2.003zm1.332 1.309l.006.2h.001l-.007-.2zm3.421-4.754c.56.56.834 1.048.873 1.47l.398-.037c-.052-.56-.402-1.13-.988-1.716l-.283.283zm.296-.268l-.308.254.308-.254zm-1.087-.344c.246.122.507.328.792.612l.283-.282c-.3-.3-.597-.54-.897-.688l-.178.358zm-.703-.256c.207.028.444.108.692.25l.199-.347a2.333 2.333 0 00-.838-.299l-.053.396zm-.567.057c.173-.065.358-.084.567-.056l.052-.397a1.546 1.546 0 00-.76.08l.141.373zm-.475.313c.142-.142.297-.245.475-.313l-.142-.374c-.236.09-.437.226-.616.404l.283.283zm-.165.165l.165-.165-.283-.283-.165.165.283.283zm0-.156a.11.11 0 01.002.154l-.287-.279a.29.29 0 00.004.41l.282-.285zm.723.7l-.724-.701-.278.287.723.7.279-.287zm-.16.009a.125.125 0 01.097-.035.103.103 0 01.065.028l-.283.283c.092.091.272.14.405.007l-.283-.283zm.714-.306a1.2 1.2 0 00-.703.296l.262.303a.798.798 0 01.47-.2l-.029-.4zm1.01.524c-.335-.336-.669-.544-1.007-.524l.023.399c.157-.01.383.088.701.408l.283-.283zm.389.504a2.127 2.127 0 00-.389-.504l-.282.283c.15.15.257.29.315.404l.356-.183zm.14.474a1.227 1.227 0 00-.14-.473l-.357.18a.838.838 0 01.099.316l.399-.023zm-.074.424a.832.832 0 00.075-.424l-.4.024a.439.439 0 01-.033.221l.358.178zm-.192.289a.856.856 0 00.2-.308l-.374-.141a.458.458 0 01-.107.164l.281.285zm-.182.182l.183-.183-.283-.283-.183.183.283.283zm-.325.201a.82.82 0 00.326-.202l-.285-.281a.422.422 0 01-.167.104l.126.38zm-.311.059c.104-.006.207-.026.309-.058l-.122-.381a.826.826 0 01-.21.04l.023.399zm-.292-.027c.092.026.19.032.291.027l-.021-.4a.492.492 0 01-.16-.012l-.11.385zm-.167-.057l.157.054.13-.379-.157-.054-.13.379zm-.275-.13c.084.036.166.075.247.118l.187-.354a3.815 3.815 0 00-.276-.132l-.158.368zm-.511-.241c.19.097.363.175.509.24l.163-.366c-.144-.064-.31-.139-.491-.231l-.181.357zm-.345-.17c.12.058.233.113.344.17l.182-.357c-.116-.06-.234-.116-.353-.173l-.173.36zm-.234-.113c.08.04.158.077.234.113l.173-.36-.23-.112-.177.36zm-.297-.15l.297.15.177-.359c-.103-.05-.199-.1-.29-.147l-.184.355zm-.237-.121c.074.036.151.076.237.12l.184-.355-.245-.125-.176.36zm-.835-.105c.28-.061.555-.025.84.107l.167-.363a1.687 1.687 0 00-1.092-.135l.085.39zm-.752.41c.214-.213.467-.352.75-.41l-.08-.392a1.86 1.86 0 00-.953.52l.283.283zm-.451.452l.451-.451-.283-.283-.451.451.283.283zm-.277.395c.09-.168.181-.3.277-.395l-.283-.283c-.133.133-.246.3-.347.489l.353.189zm-.103.523c-.01-.183.027-.366.107-.531l-.361-.173a1.495 1.495 0 00-.145.725l.4-.021zm.202.717a1.789 1.789 0 01-.202-.713l-.4.013c.01.272.092.567.242.875l.36-.175zm.688.901c-.334-.334-.56-.637-.688-.901l-.36.175c.155.317.412.655.766 1.01l.282-.284zm.902.69c-.264-.13-.566-.355-.902-.69l-.282.283c.354.355.692.61 1.009.766l.175-.36zm.713.2a1.787 1.787 0 01-.713-.2l-.175.359c.309.15.603.233.875.242l.013-.4zm.527-.101a.951.951 0 01-.521.102l-.024.4c.275.016.52-.034.735-.15l-.19-.352zm.395-.279a1.707 1.707 0 01-.395.28l.19.35c.188-.1.355-.214.487-.347l-.282-.282zm2.823-2.823l-2.823 2.823.282.283 2.824-2.823-.283-.283zm.368-1.07a1.25 1.25 0 01-.368 1.07l.283.283c.375-.376.54-.85.483-1.394l-.398.042zm-2.54 1.598l.232.326.004-.003-.236-.323zm-.024.303l.284-.283-.284.283zm.281.002l.002-.002-.283-.283-.002.002.283.283zm-.257-.305a.083.083 0 01-.07.013l-.108.385c.14.04.292.013.41-.072l-.232-.326zm-.082.01a.756.756 0 01-.172-.064l-.169.363c.065.03.146.068.257.092l.084-.391zm-.169-.062l-.137-.067-.177.358.14.069.174-.36zm-.137-.067a17.811 17.811 0 00-.29-.141l-.17.362c.098.046.191.092.283.137l.177-.358zm-.286-.14l-.176-.084-.172.36.171.083.177-.358zm-.176-.084c-.092-.044-.172-.082-.243-.12l-.187.354c.08.042.168.084.258.127l.172-.361zm-.249-.122l-.15-.075-.18.357.154.077.176-.36zm-.15-.075c-.1-.05-.201-.101-.303-.147l-.165.364c.094.042.187.09.289.14l.179-.357zm-.31-.15a1.59 1.59 0 00-.405-.104l-.047.398c.104.012.205.038.302.077l.15-.372zm-.418-.105a1.535 1.535 0 00-.412.035l.088.39c.1-.022.201-.03.304-.025l.02-.4zm-.419.037a1.043 1.043 0 00-.47.279l.283.283a.644.644 0 01.288-.175l-.1-.387zm-.47.279c-.259.259-.424.549-.42.856l.4-.005c-.002-.155.082-.347.303-.568l-.283-.283zm-.42.85c-.005.325.209.65.535.976l.283-.283c-.315-.315-.42-.537-.418-.686l-.4-.006zm.535.976c.335.335.672.548 1.003.537l-.013-.4c-.155.005-.387-.1-.707-.42l-.283.283zm1.004.537c.307-.012.588-.163.84-.415l-.283-.283c-.205.205-.395.291-.572.298l.015.4zm.84-.415l1.164-1.164-.283-.283-1.164 1.164.283.283z" fill="#010101"/></svg>