<svg width="50" height="48" fill="none" xmlns="http://www.w3.org/2000/svg"><path d="M7.902.01C5.578-.083 3.296.503 1.77 2.157.246 3.812-.182 6.111.071 8.438c.254 2.328 1.143 4.846 2.494 7.56a50.904 50.904 0 004.987 7.71 54.176 54.176 0 00-4.987 7.756C1.205 34.132.312 36.796.07 38.978c-.258 2.428.158 4.85 1.696 6.306a7.12 7.12 0 006.135 2.182c2.352 0 4.896-.728 7.684-1.941 2.91-1.214 6.035-3.15 9.186-5.333 3.15 2.182 6.305 4.119 9.21 5.333 2.905 1.213 5.337 1.94 7.76 1.94 2.423.242 4.605-.486 6.06-2.181 1.696-1.455 1.937-3.878 1.696-6.306a20.719 20.719 0 00-2.424-7.514 42.345 42.345 0 00-5.091-7.756 39.114 39.114 0 005.091-7.71 20.228 20.228 0 002.424-7.56c.24-2.327 0-4.63-1.696-6.28-1.455-1.662-3.637-2.24-6.06-2.149-2.423.092-4.85.802-7.76 1.979a50.852 50.852 0 00-9.194 5.286 50.565 50.565 0 00-9.185-5.286C12.798.81 10.242.1 7.902.009zm-.154 4.118c2.159.187 4.269.75 6.234 1.663a45.011 45.011 0 017.373 4.094c-1.77 1.384-3.516 2.838-5.236 4.46a84.134 84.134 0 00-5.82 6.109 46.6 46.6 0 01-4.023-6.326C5.063 11.73 4.36 9.594 4.198 7.993c-.162-1.6.12-2.518.632-3.054.511-.537 1.326-.86 2.918-.81zm34.177 0c1.455-.05 2.423.316 2.91.831.486.516.727 1.455.486 3.055 0 1.6-.728 3.74-1.941 6.135a39.873 39.873 0 01-4.12 6.326 64.795 64.795 0 00-5.818-6.11c-1.696-1.62-3.396-3.076-5.092-4.46a39.974 39.974 0 017.245-4.102 18.254 18.254 0 016.317-1.675h.013zm-17.211 8.313a75.584 75.584 0 016.06 4.946 71.781 71.781 0 015.818 6.35 69.819 69.819 0 01-5.819 6.542c-1.936 1.7-4.118 3.396-6.06 4.85-1.936-1.454-3.902-3.15-5.864-4.85h-.025a80.788 80.788 0 01-6.002-6.562 79.518 79.518 0 016.015-6.351c1.961-1.845 3.927-3.446 5.864-4.946l.013.02zm-3.575 6.912c-.615 0-1.114.498-1.114 1.113v2.764h9.527v-2.834a1.118 1.118 0 00-1.185-1.048h-7.228v.005zm-.993 4.846v2.668a1.11 1.11 0 001.014 1.205h7.419a1.122 1.122 0 00.973-1.213V24.19l-9.406.009zm-9.942 2.91c1.77 1.94 3.687 4.122 5.819 6.059.067.087.14.17.22.245 1.663 1.455 3.325 2.91 5.017 4.12a34.984 34.984 0 01-7.37 4.122c-2.447 1.21-4.63 1.696-6.234 1.696s-2.448-.241-2.955-.727c-.507-.487-.777-1.455-.607-3.15.17-1.456.873-3.638 2.079-6.06a46.621 46.621 0 014.031-6.306zm29.094 0a39.623 39.623 0 014.123 6.304c1.21 2.423 1.937 4.605 1.937 6.06.245 1.696 0 2.664-.482 3.15-.482.487-1.455.728-2.91.728a14.54 14.54 0 01-6.305-1.696c-2.178-.972-4.846-2.182-7.269-4.123 1.696-1.213 3.15-2.664 4.846-4.119a2.28 2.28 0 00.245-.245 67.039 67.039 0 005.81-6.06h.005z" fill="#fff"/></svg>