<svg width="47" height="63" fill="none" xmlns="http://www.w3.org/2000/svg"><path fill-rule="evenodd" clip-rule="evenodd" d="M23.372 34.095l-1.346-2.019-1.346-2.018c-.673-1.346-1.57-2.916-2.019-4.487-.673-2.916 1.122-4.934 2.692-6.729.224-.224.449-.673.897-.897l5.832-5.832c1.795-1.795 2.916-3.814 3.14-6.73.225-1.57-.224-4.71-1.345-5.383.224 2.243.449 3.813-.449 6.28-1.121 2.692-2.916 4.263-4.935 5.833-1.57 1.346-4.486 3.589-5.832 4.935-.897.897-2.467 2.467-3.14 4.037-.897 2.243 0 3.813 1.122 5.384.448.672.897 1.345 1.57 2.018.673.898 1.121 1.346 1.57 2.02a6.828 6.828 0 001.794 1.794c.225.448 1.346 1.57 1.795 1.794zm19.739 19.739c.673 1.122 0 1.57-.897 2.02-4.038 1.794-17.272 2.242-21.534 2.242-4.262 0-8.524 0-12.786-.897-.673-.224-3.588-.673-3.813-1.346 0-.449.449-.897.673-1.121.897-.673 2.692-.898 3.813-1.122.449 0 1.122-.224 1.346-.224-2.019-.225-8.3.673-9.645 2.691-.897 1.346.673 1.795 1.57 2.244 3.59 1.121 11.216 1.346 15.253 1.57 6.056 0 20.412 0 25.572-3.59.224-.224.897-.672.897-1.12.448-.674-.225-1.122-.449-1.347z" fill="#fff"></path><path fill-rule="evenodd" clip-rule="evenodd" d="M25.84 36.563c.672-.225 2.467-1.795 2.915-2.244.673-.672 1.795-2.018 1.795-3.364s-.897-3.14-1.346-4.038c-1.794-2.692-3.14-4.262-.897-7.178.897-.897 1.57-1.794 2.692-2.691 1.121-1.122 3.14-2.468 4.71-3.365l1.57-1.122c-.897.225-3.14 1.122-4.037 1.346-1.122.449-2.692 1.122-3.59 1.795-3.588 2.019-7.177 5.383-5.832 9.87.898 3.14 3.814 4.934 3.59 7.177.224 1.795-1.122 3.14-1.57 3.814zm7.626 15.028c-1.122-.448-2.019-.897-2.916-1.57-.673-.449-.449-.224-1.122-.224-2.916.673-7.85.673-11.215.673-.897 0-3.14 0-3.589-.898-.224-.448 0-.897.224-1.121-2.019.449-4.262 2.243-1.346 3.589 3.365 1.57 10.094 1.57 13.683.897 1.122.224 5.832-.897 6.281-1.346zm.897-6.729c-.897-.224-1.57-.673-2.243-1.122-.448-.448-.224-.224-1.346-.224-3.589.673-14.131 1.57-17.271.449-.45-.225-.898-.449-.898-.898 0-.448.449-.897.673-1.121-2.467.224-4.71 2.692-1.57 3.813 3.589 1.346 11.664 1.346 15.477.898 1.57-.45 6.281-1.346 7.178-1.795z" fill="#fff"></path><path fill-rule="evenodd" clip-rule="evenodd" d="M36.83 36.787c-.448 0-1.12.224-1.57.224-.448 0-1.121.224-1.57.224-3.364.45-6.953.898-10.094 1.122-2.467.224-12.112.449-13.683-.897 0-.673.673-.898.898-1.122 1.57-.897 3.364-1.121 4.934-1.794-2.243-.225-7.85 1.346-9.87 2.692-2.242 1.345 1.571 2.018 2.917 2.018 8.075 1.122 15.702.449 23.552-.673 1.346-.224 1.57 0 2.468-.673.673-.224 1.57-.673 2.019-1.121zM9.016 61.012c2.243.898 7.178 1.57 9.646 1.795a89.85 89.85 0 0010.99 0c4.711-.224 10.095-.897 14.132-2.916.897-.449 2.692-1.57 2.916-2.916-.224.224-.448.448-.897.673-7.178 4.934-23.553 4.486-32.076 3.813l-4.71-.449zM38.4 34.768c1.795-.449 3.814-.224 4.935.897 1.122 1.122 1.122 3.14.449 4.71-1.122 2.02-3.59 4.038-5.608 5.16-.449.224-.673.449-.897.673 1.346-.224 4.486-1.57 5.608-2.243 1.57-.898 3.14-2.243 3.813-4.038.897-2.467-.449-4.486-2.019-5.383-.897-.449-2.019-.897-3.14-.673-1.122 0-2.692.448-3.14.897z" fill="#fff"></path></svg>