<svg width="62" height="62" fill="none" xmlns="http://www.w3.org/2000/svg"><rect x="1" y="1" width="60" height="60" rx="4" stroke="#fff" stroke-width="2" stroke-miterlimit="10" stroke-linecap="square"></rect><path fill-rule="evenodd" clip-rule="evenodd" d="M27.286 46.882V28.2h5.943v19.587c0 5.937-3.482 8.642-8.566 8.642-4.597 0-7.91-3.082-9.263-5.943l4.666-2.827c.905 1.596 2.275 2.827 4.248 2.827 1.887 0 2.972-.737 2.972-3.604zm10.197-11.19c0-4.254 3.244-7.492 8.305-7.492 3.604 0 6.198 1.254 8.06 4.544l-4.416 2.832c-.969-1.74-2.014-2.431-3.645-2.431-1.66 0-2.715 1.056-2.715 2.431 0 1.7 1.056 2.386 3.487 3.442l1.416.603c4.823 2.066 7.54 4.173 7.54 8.909 0 5.101-4.011 7.899-9.397 7.899-5.264 0-8.252-2.653-9.918-5.943l4.457-2.972c1.213 1.985 2.536 3.883 5.334 3.883 2.35 0 3.58-1.172 3.58-2.792 0-1.944-1.276-2.634-3.859-3.766l-1.416-.61c-4.091-1.74-6.813-3.923-6.813-8.537z" fill="#fff"></path></svg>